<?xml version="1.0" encoding="utf-8"?>
<!-- Generator: Adobe Illustrator 28.5.0, SVG Export Plug-In . SVG Version: 9.03 Build 54727)  -->
<svg version="1.0" id="Layer_1" xmlns="http://www.w3.org/2000/svg" xmlns:xlink="http://www.w3.org/1999/xlink" x="0px" y="0px"
	 viewBox="0 0 64 64" style="enable-background:new 0 0 64 64;" xml:space="preserve">
<style type="text/css">
	.st0{fill:none;stroke:#231F20;stroke-width:2;stroke-linecap:round;stroke-linejoin:round;stroke-miterlimit:10;}
</style>
<g>
	<g>
		<path class="st0" d="M36.7,45.9c-1.5,4.8-4,5.5-4,5.5l-4.3,0.5L23,52.5c-2.1,0.2-4-1.1-4.4-3.1L17,41.9l-2.7-0.1
			c-0.9,0-1.6-1-1.2-1.8l2.6-6.7c-0.6-1.7-0.9-3.6-0.9-5.5c0-1.8,0.3-3.5,0.8-5.1"/>
		<path class="st0" d="M28.3,51.9c0,0,3.5,4.1,1.5,8.6"/>
	</g>
	<path class="st0" d="M45.5,38.5c0,0,2.6-2.2,1.8-6.6c-0.3-1.6-0.8-3.3-2.6-3.5c-2.1-0.2-5.8,3.6-5.8,3.6s-2.3-1.6-1.7-9.4
		c0.5-6.5-12.8,0.1-17.1,0.4c-5,0.3-16.2-2.7-13.6-14.8c0,0,3.8,3.8,12.5-0.2c11.1-5,32.7-9.1,37.4,5.7c3.1,9.9,1.4,23.1-5.3,27.1
		c-1.8,1.1-3.2,2.7-3.7,4.7c-1.1,3.8-2.4,9.9-1.3,15"/>
</g>
</svg>
