<?xml version="1.0" encoding="utf-8"?>
<!-- Generator: Adobe Illustrator 28.0.0, SVG Export Plug-In . SVG Version: 6.00 Build 0)  -->
<svg version="1.1" id="Outline" xmlns="http://www.w3.org/2000/svg" xmlns:xlink="http://www.w3.org/1999/xlink" x="0px" y="0px"
	 viewBox="0 0 64 64" enable-background="new 0 0 64 64" xml:space="preserve">
<g>
	<path d="M32,7C18.21484,7,7,18.21484,7,32s11.21484,25,25,25s25-11.21484,25-25S45.78516,7,32,7z M32,55
		C19.31787,55,9,44.68213,9,32S19.31787,9,32,9c12.68262,0,23,10.31787,23,23S44.68262,55,32,55z"/>
	<path d="M32,11c-11.57959,0-21,9.42041-21,21s9.42041,21,21,21c11.5791,0,21-9.42041,21-21S43.5791,11,32,11z M32,13
		c5.44623,0,10.35083,2.31622,13.81842,6H18.18158C21.64917,15.31622,26.55377,13,32,13z M16.53693,21h30.92615
		C49.68079,24.10822,51,27.89929,51,32s-1.31921,7.89178-3.53693,11H16.53693C14.31921,39.89178,13,36.10071,13,32
		S14.31921,24.10822,16.53693,21z M32,51c-5.44623,0-10.35083-2.31622-13.81842-6h27.63684C42.35083,48.68378,37.44623,51,32,51z"/>
	<circle cx="32" cy="48" r="1"/>
	<circle cx="35.5" cy="48" r="1"/>
	<circle cx="28.5" cy="48" r="1"/>
	<circle cx="32" cy="16" r="1"/>
	<circle cx="28.5" cy="16" r="1"/>
	<circle cx="35.5" cy="16" r="1"/>
	<path d="M26.98291,34.42188l-0.8418,4.90771c-0.06396,0.375,0.09033,0.75439,0.39795,0.97803
		c0.30859,0.22412,0.7168,0.25244,1.05322,0.07617L32,38.06689c0,0,4.40373,2.31454,4.40821,2.3169
		c0.3327,0.17486,0.74948,0.14444,1.05272-0.07618c0.30762-0.22363,0.46191-0.60303,0.39746-0.97803l-0.8418-4.90771
		l3.56641-3.47559c0.27246-0.26611,0.37012-0.66309,0.25293-1.02539c-0.11816-0.36182-0.43066-0.62598-0.80762-0.68066
		l-4.92773-0.71631l-2.2041-4.46484c-0.33691-0.68262-1.45605-0.68262-1.79297,0l-2.2041,4.46484l-4.92822,0.71631
		c-0.37646,0.05469-0.68945,0.31885-0.80713,0.68066c-0.11768,0.3623-0.01953,0.75928,0.25293,1.02539L26.98291,34.42188z
		 M29.70752,30.42773c0.32568-0.04736,0.60693-0.25195,0.75244-0.54736L32,26.76074l1.54004,3.11963
		c0.14551,0.29541,0.42676,0.5,0.75293,0.54736l3.44336,0.50049l-2.49219,2.42822c-0.23535,0.22998-0.34277,0.56104-0.28711,0.88525
		l0.58789,3.4292c0,0-3.07959-1.61914-3.0796-1.61915c-0.28895-0.15223-0.64163-0.15226-0.93065,0.00001l-3.07959,1.61914
		l0.58838-3.4292c0.05518-0.32422-0.05225-0.65527-0.2876-0.88525l-2.4917-2.42822L29.70752,30.42773z"/>
	<path d="M43,32c0,0.55225,0.44727,1,1,1h2c0.55273,0,1-0.44775,1-1s-0.44727-1-1-1h-2C43.44727,31,43,31.44775,43,32z"/>
	<path d="M45.8584,26.25977c-0.21094-0.51074-0.79785-0.75049-1.30664-0.54102l-1.84766,0.76514
		c-0.50969,0.21136-0.75188,0.79624-0.54109,1.30643c0.19705,0.47691,0.82978,0.73837,1.30671,0.54123l1.84766-0.76514
		C45.82715,27.35498,46.06934,26.77002,45.8584,26.25977z"/>
	<path d="M42.7041,37.51611c0,0,1.84766,0.76514,1.84773,0.76517c0.50578,0.20938,1.09705-0.03461,1.30657-0.54105
		c0.21094-0.51025-0.03125-1.09521-0.54102-1.30664l-1.84766-0.76514c-0.50781-0.21094-1.0957,0.03076-1.30664,0.54102
		S42.19434,37.30469,42.7041,37.51611z"/>
	<path d="M18,33h2c0.55225,0,1-0.44775,1-1s-0.44775-1-1-1h-2c-0.55225,0-1,0.44775-1,1S17.44775,33,18,33z"/>
	<path d="M18.68311,27.56641c0,0,1.84766,0.76514,1.84773,0.76517c0.50576,0.20856,1.09681-0.0348,1.30657-0.54104
		c0.21143-0.51025-0.03076-1.09521-0.54102-1.30664l-1.84766-0.76514c-0.51172-0.21094-1.0957,0.03125-1.30664,0.54102
		C17.93066,26.77002,18.17285,27.35498,18.68311,27.56641z"/>
	<path d="M20.53076,35.66846l-1.84766,0.76514c-0.51022,0.21141-0.75241,0.79631-0.54106,1.30654
		c0.20934,0.50538,0.80333,0.74872,1.30668,0.54111l1.84766-0.76514c0.51025-0.21143,0.75244-0.79639,0.54102-1.30664
		C21.62598,35.69971,21.04297,35.45605,20.53076,35.66846z"/>
</g>
</svg>
