<?xml version="1.0" encoding="utf-8"?>
<!-- Generator: Adobe Illustrator 28.4.1, SVG Export Plug-In . SVG Version: 6.00 Build 0)  -->
<svg version="1.0" id="Layer_1" xmlns="http://www.w3.org/2000/svg" xmlns:xlink="http://www.w3.org/1999/xlink" x="0px" y="0px"
	 viewBox="0 0 64 64" style="enable-background:new 0 0 64 64;" xml:space="preserve">
<style type="text/css">
	.st0{fill:none;stroke:#231F20;stroke-width:2;stroke-linecap:round;stroke-linejoin:round;stroke-miterlimit:10;}
</style>
<g>
	<polygon class="st0" points="42.5,32.6 49.7,14.4 57.2,32.1 57.2,53.7 42.5,53.7 	"/>
	<polyline class="st0" points="49.7,14.4 51.1,10.3 60.9,32.1 57.2,32.1 	"/>
	<polyline class="st0" points="17.2,17.8 19.9,10.3 51.1,10.3 	"/>
	<line class="st0" x1="42.5" y1="32.6" x2="24.1" y2="32.6"/>
	<line class="st0" x1="8.5" y1="53.7" x2="59.6" y2="53.7"/>
	<path class="st0" d="M23.2,27.8c0.6-0.8,1-1.8,1-2.9c0-2.7-2-4.8-4.6-4.8c-0.2,0-0.3,0-0.5,0c-1-2-2.9-3.4-5.2-3.4
		c-3,0-5.5,2.3-5.8,5.4c-0.4-0.5-1-0.8-1.6-0.8c-1.1,0-2.1,1-2.1,2.2c0,0.7,0.3,1.2,0.7,1.6c-1.2,0.9-2,2.3-2,4c0,2.7,2,4.8,4.6,4.8
		c0.7,0,1.4-0.2,2-0.5c0.8,1.7,2.4,2.8,4.3,2.8c2,0,3.8-1.3,4.5-3.2c0.6,0.8,1.6,1.3,2.7,1.3c1.9,0,3.5-1.6,3.5-3.7
		C24.6,29.5,24,28.5,23.2,27.8z"/>
	<path class="st0" d="M11.8,35.8c0,0,0.9,9.2-2,17.9"/>
	<path class="st0" d="M16,35.8c0,0-0.4,10.5,2.5,17.9"/>
	<path class="st0" d="M11.8,43c0,0,0.1-2.8-3.9-6.3"/>
	<path class="st0" d="M17,26.3c0,0,0.7,2-1.6,2.8"/>
	<rect x="26" y="40.2" class="st0" width="7" height="13.5"/>
</g>
</svg>
