<?xml version="1.0" encoding="utf-8"?>
<!-- Generator: Adobe Illustrator 25.4.1, SVG Export Plug-In . SVG Version: 6.00 Build 0)  -->
<svg version="1.1" id="Layer_1" xmlns="http://www.w3.org/2000/svg" xmlns:xlink="http://www.w3.org/1999/xlink" x="0px" y="0px"
	 viewBox="0 0 64 64" style="enable-background:new 0 0 64 64;" xml:space="preserve">
<style type="text/css">
	.st0{fill:none;stroke:#231F20;stroke-width:2;stroke-linecap:round;stroke-linejoin:round;stroke-miterlimit:10;}
</style>
<g>
	<path class="st0" d="M59.17,32.46H4.83c-0.84,0-1.52-0.68-1.52-1.52v-2.6c0-0.84,0.68-1.52,1.52-1.52h54.34
		c0.84,0,1.52,0.68,1.52,1.52v2.6C60.7,31.78,60.01,32.46,59.17,32.46z"/>
	<rect x="6.99" y="32.46" class="st0" width="50.03" height="24.29"/>
	<rect x="5.91" y="7.25" class="st0" width="25.51" height="14.93"/>
	<rect x="14.25" y="22.18" class="st0" width="8.81" height="4.63"/>
	<rect x="35.08" y="23.84" class="st0" width="13.78" height="2.97"/>
	<polygon class="st0" points="59.5,20.87 52.15,20.87 53.23,26.81 58.42,26.81 	"/>
	<path class="st0" d="M51.84,13.11c0,0,3.83-0.95,3.98,3.11C55.82,16.22,51.84,16.62,51.84,13.11z"/>
	<path class="st0" d="M59.8,14.81c0,0-3.83-0.95-3.98,3.11C55.82,17.93,59.8,18.32,59.8,14.81z"/>
	<line class="st0" x1="55.82" y1="10.77" x2="55.82" y2="20.87"/>
</g>
</svg>
