<?xml version="1.0" encoding="utf-8"?>
<!-- Generator: Adobe Illustrator 15.0.0, SVG Export Plug-In . SVG Version: 6.00 Build 0)  -->
<!DOCTYPE svg PUBLIC "-//W3C//DTD SVG 1.1//EN" "http://www.w3.org/Graphics/SVG/1.1/DTD/svg11.dtd">
<svg version="1.1" id="Layer_1" xmlns="http://www.w3.org/2000/svg" xmlns:xlink="http://www.w3.org/1999/xlink" x="0px" y="0px"
	 width="400px" height="85px" viewBox="0 0 400 85" enable-background="new 0 0 400 85" xml:space="preserve">
<path fill="#6D6E70" d="M125.895,37.713L125.895,37.713l-7.105,0.251v-9.082c0-1.786-1.455-3.241-3.243-3.241H67.335
	c-1.105,0-2.03,0.579-2.554,1.479c-0.579-0.888-1.577-1.479-2.714-1.479H13.855c-1.72,0-3.017,1.394-3.017,3.232l-0.086,8.962
	l-7.28-0.123C1.485,37.712,0,39.774,0,41.618v36.268c0,1.265,0.686,2.361,1.697,2.97l0.905,4.03
	c0.174,0.671,0.804,1.157,1.497,1.157h4.288c0.693,0,1.323-0.486,1.498-1.157l0.931-3.584h107.77l0.932,3.587
	c0.176,0.668,0.806,1.154,1.498,1.154h4.288c0.695,0,1.324-0.487,1.505-1.191l0.896-3.998c1.012-0.606,1.697-1.703,1.697-2.968
	V41.618C129.402,39.774,127.917,37.713,125.895,37.713z M119.759,39.952l6.17-0.22c0.692,0,1.452,0.986,1.452,1.886v36.268
	c0,0.591-0.358,1.096-0.866,1.322l-0.053,0.021c-0.166,0.066-0.345,0.108-0.533,0.108h-4.719c-0.173,0-0.336-0.042-0.491-0.099
	c-0.045-0.018-0.091-0.034-0.134-0.057c-0.117-0.057-0.224-0.13-0.32-0.216c-0.064-0.058-0.12-0.124-0.174-0.191
	c-0.197-0.249-0.332-0.548-0.332-0.889V39.952z M11.664,77.886v-13.22h106.075v13.22c0,0.497,0.109,0.967,0.298,1.396H11.366
	C11.555,78.853,11.664,78.383,11.664,77.886z M66.339,28.882c0-0.562,0.262-1.221,0.996-1.221h48.211
	c0.675,0,1.223,0.547,1.223,1.221V52.27c0,0.735-0.658,0.997-1.223,0.997H67.335c-0.563,0-1.221-0.262-1.221-0.986L66.339,28.882z
	 M12.859,28.882c0-0.562,0.261-1.221,0.997-1.221h48.211c0.674,0,1.222,0.547,1.222,1.221V52.27c0,0.735-0.658,0.997-1.222,0.997
	H13.855c-0.563,0-1.222-0.262-1.222-0.986L12.859,28.882z M13.855,55.287h48.211c1.114,0,2.056-0.478,2.635-1.229
	c0.578,0.751,1.52,1.229,2.634,1.229h48.211c0.865,0,1.622-0.292,2.192-0.771v8.13H11.664v-8.13
	C12.233,54.995,12.991,55.287,13.855,55.287z M2.021,41.618c0-0.899,0.76-1.886,1.435-1.886l6.188,0.104v38.05
	c0,0.341-0.136,0.641-0.333,0.889c-0.055,0.067-0.11,0.135-0.175,0.191c-0.097,0.086-0.202,0.159-0.319,0.216
	c-0.043,0.021-0.089,0.039-0.135,0.057c-0.155,0.057-0.317,0.099-0.491,0.099H3.472c-0.188,0-0.366-0.042-0.531-0.106l-0.057-0.022
	c-0.507-0.227-0.864-0.731-0.864-1.322V41.618z M8.021,84.023H4.479l-0.599-2.666h4.31c0.18,0,0.358-0.013,0.534-0.042L8.021,84.023
	z M124.923,84.023h-3.543l-0.703-2.706c0.175,0.027,0.353,0.04,0.533,0.04h4.311L124.923,84.023z"/>
<path fill="#6D6E70" d="M203.543,37.712h-0.002l-6.788,0.239v-9.07c0-1.788-1.454-3.243-3.242-3.243h-38.882
	c-1.72,0-3.018,1.395-3.018,3.233l-0.086,8.956l-6.963-0.116c-1.987,0-3.473,2.062-3.473,3.906v36.269
	c0,1.265,0.686,2.361,1.697,2.97l0.904,4.03c0.175,0.671,0.805,1.157,1.498,1.157h4.287c0.694,0,1.324-0.486,1.498-1.157
	l0.931-3.584h44.327l0.932,3.587c0.176,0.668,0.807,1.154,1.498,1.154h4.289c0.695,0,1.324-0.487,1.504-1.191l0.898-3.998
	c1.01-0.606,1.695-1.703,1.695-2.968V41.617C207.049,39.773,205.564,37.712,203.543,37.712z M197.407,39.951l6.171-0.221
	c0.691,0,1.451,0.988,1.451,1.887v36.269c0,0.591-0.357,1.096-0.865,1.322l-0.055,0.022c-0.166,0.064-0.344,0.106-0.531,0.106
	h-4.719c-0.174,0-0.336-0.042-0.49-0.099c-0.046-0.018-0.092-0.035-0.136-0.057c-0.116-0.057-0.221-0.129-0.316-0.213
	c-0.064-0.058-0.122-0.127-0.178-0.196c-0.196-0.248-0.332-0.546-0.332-0.887V39.951z M195.386,62.646h-42.632v-7.89
	c0.522,0.334,1.164,0.528,1.875,0.528h38.882c0.711,0,1.353-0.194,1.875-0.528V62.646z M152.754,77.886v-13.22h42.632v13.22
	c0,0.497,0.109,0.967,0.298,1.396h-43.228C152.645,78.853,152.754,78.383,152.754,77.886z M153.633,28.881
	c0-0.564,0.261-1.222,0.996-1.222h38.882c0.674,0,1.222,0.548,1.222,1.222v23.387c0,0.735-0.658,0.996-1.222,0.996h-38.882
	c-0.563,0-1.223-0.261-1.223-0.987L153.633,28.881z M143.111,41.617c0-0.898,0.761-1.887,1.435-1.887l6.188,0.104v38.051
	c0,0.341-0.135,0.641-0.332,0.889c-0.055,0.067-0.109,0.134-0.174,0.191c-0.097,0.086-0.203,0.159-0.319,0.216
	c-0.044,0.021-0.09,0.039-0.136,0.057c-0.155,0.057-0.317,0.099-0.491,0.099h-4.718c-0.188,0-0.365-0.042-0.53-0.106l-0.057-0.022
	c-0.507-0.227-0.865-0.731-0.865-1.322V41.617z M149.112,84.023h-3.543l-0.597-2.666h4.309c0.182,0,0.359-0.013,0.534-0.04
	L149.112,84.023z M202.572,84.023h-3.544l-0.703-2.706c0.175,0.027,0.353,0.04,0.534,0.04h4.309L202.572,84.023z"/>
<path fill="#6D6E70" d="M269.947,52.161h-47.904c-2.479,0-4.494,2.017-4.494,4.495v23.151c0,1.134,0.922,2.057,2.055,2.057h0.012
	l0.674,3c0.178,0.684,0.818,1.179,1.525,1.179h4.52c0.709,0,1.352-0.497,1.525-1.179l0.779-3h34.713l0.777,3.003
	c0.18,0.682,0.822,1.176,1.527,1.176h4.52c0.707,0,1.35-0.497,1.533-1.212l0.664-2.967h0.012c1.135,0,2.057-0.923,2.057-2.057
	V56.656C274.441,54.178,272.426,52.161,269.947,52.161z M222.043,54.182h47.904c1.363,0,2.475,1.11,2.475,2.475v7.766h-52.854
	v-7.766C219.568,55.292,220.68,54.182,222.043,54.182z M272.385,79.843l-52.816-0.035V66.442h52.854v13.365
	C272.422,79.825,272.402,79.843,272.385,79.843z M225.99,84.023h-3.82l-0.484-2.159h4.865L225.99,84.023z M269.82,84.023h-3.822
	l-0.561-2.159h4.865L269.82,84.023z"/>
<g>
	<path fill="#6D6E70" d="M371.275,1h-59.352c-0.771,0-1.395,0.629-1.395,1.403v35.619c0,0.774,0.623,1.399,1.395,1.399h23.896v8.017
		h-7.133v1.776h25.824v-1.776h-7.127v-8.017h23.891c0.773,0,1.402-0.625,1.402-1.399V2.403C372.678,1.629,372.049,1,371.275,1z
		 M367.775,35.223h-52.344V5.203h52.344V35.223z"/>
	<g>
		<path fill="#6D6E70" d="M398.371,48.84H284.832c-0.898,0-1.629,0.729-1.629,1.626v33.949c0,0.897,0.73,1.628,1.629,1.628h4.836
			c0.898,0,1.627-0.73,1.627-1.628v-0.788c0-0.154,0.127-0.28,0.283-0.28h100.043c0.154,0,0.283,0.126,0.283,0.28v0.788
			c0,0.897,0.732,1.628,1.631,1.628h4.836c0.896,0,1.629-0.73,1.629-1.628V50.466C400,49.569,399.268,48.84,398.371,48.84z
			 M291.264,57.62h49.328v17.221h-49.328V57.62z M342.611,57.62h49.326v17.221h-49.326V57.62z M391.938,55.601H291.264v-4.74
			h100.674V55.601z M285.223,50.86h4.021v33.163h-4.021V50.86z M391.621,81.326H291.578c-0.107,0-0.209,0.017-0.314,0.031v-4.496
			h100.674v4.496C391.834,81.343,391.729,81.326,391.621,81.326z M397.979,84.023h-4.02V50.86h4.02V84.023z"/>
		<path fill="#6D6E70" d="M315.928,62.712c-1.941,0-3.521,1.579-3.521,3.522c0,1.939,1.58,3.518,3.521,3.518
			c1.939,0,3.52-1.578,3.52-3.518C319.447,64.291,317.867,62.712,315.928,62.712z"/>
		<path fill="#6D6E70" d="M367.275,62.712c-1.941,0-3.52,1.579-3.52,3.522c0,1.939,1.578,3.518,3.52,3.518
			c1.939,0,3.521-1.578,3.521-3.518C370.797,64.291,369.215,62.712,367.275,62.712z"/>
	</g>
</g>
</svg>
