<?xml version="1.0" encoding="utf-8"?>
<!-- Generator: Adobe Illustrator 15.0.0, SVG Export Plug-In . SVG Version: 6.00 Build 0)  -->
<!DOCTYPE svg PUBLIC "-//W3C//DTD SVG 1.1//EN" "http://www.w3.org/Graphics/SVG/1.1/DTD/svg11.dtd">
<svg version="1.1" id="Layer_1" xmlns="http://www.w3.org/2000/svg" xmlns:xlink="http://www.w3.org/1999/xlink" x="0px" y="0px"
	 width="120px" height="120px" viewBox="1.083 0 120 120" enable-background="new 1.083 0 120 120" xml:space="preserve">
<path fill="#B3B3B3" d="M83.16,87.794c-6.312-5.203-14.399-8.319-23.213-8.319c-10.98,0-19.886-8.903-19.886-19.889
	c0,20.183,16.354,36.527,36.531,36.527c10.981,0,19.883,8.903,19.883,19.887C96.477,104.646,91.292,94.491,83.16,87.794z"/>
<path fill="#CCCCCC" d="M59.947,39.705c10.98,0,19.884,8.902,19.884,19.885c0,5.857-2.534,11.129-6.558,14.771
	c5.59,1.521,10.738,4.369,15.014,8.278c5.316-6.538,8.188-14.623,8.188-23.05c0.002-20.178-16.352-36.532-36.528-36.532
	c-20.172,0-36.527,16.354-36.527,36.53c0,11.36,5.184,21.511,13.315,28.206c3.178,2.617,6.807,4.708,10.746,6.136
	c3.892,1.424,8.088,2.186,12.466,2.186h16.647c-20.176,0-36.532-16.35-36.532-36.527C40.061,48.607,48.966,39.705,59.947,39.705z"/>
</svg>
