<?xml version="1.0" encoding="utf-8"?>
<!-- Generator: Adobe Illustrator 28.5.0, SVG Export Plug-In . SVG Version: 9.03 Build 54727)  -->
<svg version="1.0" id="Layer_1" xmlns="http://www.w3.org/2000/svg" xmlns:xlink="http://www.w3.org/1999/xlink" x="0px" y="0px"
	 viewBox="0 0 64 64" style="enable-background:new 0 0 64 64;" xml:space="preserve">
<style type="text/css">
	.st0{fill:none;stroke:#231F20;stroke-width:2;stroke-linecap:round;stroke-linejoin:round;stroke-miterlimit:10;}
</style>
<g>
	<g>
		<path class="st0" d="M30.8,43.3c-2,7.2-7.5,7.9-7.5,7.9l-5.3,0.6c-2.1,0.2-4-1.1-4.4-3.2l-1.6-7.5l-2.7-0.1c-0.9,0-1.6-1-1.2-1.8
			l2.6-6.7C10,30.8,9.7,29,9.7,27c0-1.3,0.1-2.5,0.4-3.8"/>
		<path class="st0" d="M40.9,59.9c-1-4.7-0.7-8.5,0.1-11.9"/>
		<path class="st0" d="M23.2,51.3c0,0,3.5,4.1,1.5,8.6"/>
	</g>
	<path class="st0" d="M11.7,23.5c-2.6,0.3-4.6-2.3-3.8-4.8c2.4-7,8.9-17.7,25.8-13.7c28.6,6.9,6.6,42.2,22.6,50.6
		c0,0-13.4,6.4-15.2-7.6c-0.8-6.4,3-19-2.3-21.3c-4.8-2.1-8.7,11.4-22.1-1.9C15.4,23.4,13.5,23.2,11.7,23.5z"/>
</g>
</svg>
