<?xml version="1.0" encoding="utf-8"?>
<!-- Generator: Adobe Illustrator 28.5.0, SVG Export Plug-In . SVG Version: 9.03 Build 54727)  -->
<svg version="1.0" id="Layer_1" xmlns="http://www.w3.org/2000/svg" xmlns:xlink="http://www.w3.org/1999/xlink" x="0px" y="0px"
	 viewBox="0 0 64 64" style="enable-background:new 0 0 64 64;" xml:space="preserve">
<style type="text/css">
	.st0{fill:none;stroke:#231F20;stroke-width:2;stroke-linecap:round;stroke-linejoin:round;stroke-miterlimit:10;}
</style>
<g>
	<path class="st0" d="M20.2,32.1L20.2,32.1c-4.1,0-7.4-3.3-7.4-7.4v-7.4h14.9v7.4C27.6,28.8,24.3,32.1,20.2,32.1z"/>
	<path class="st0" d="M27.6,17.2v-2.4c0-2.1-1.7-3.9-3.9-3.9h-14v3.2c0,1.7,1.4,3,3,3h0"/>
	<path class="st0" d="M24.7,30.6v3c0,2.5-2,4.5-4.5,4.5h0c-2.5,0-4.5-2-4.5-4.5v-3"/>
	<path class="st0" d="M15.6,33.6l-8.8,2.8c-3.1,1-5.3,3.9-5.3,7.2v6.9H22"/>
	<line class="st0" x1="33.4" y1="36.4" x2="24.7" y2="33.6"/>
	<line class="st0" x1="9.6" y1="43.2" x2="9.6" y2="50.6"/>
	<path class="st0" d="M40.2,31.4v2.9c0,2.4,1.9,4.3,4.3,4.3h0c2.4,0,4.3-1.9,4.3-4.3v-2.9"/>
	<path class="st0" d="M48.9,34.2l8.5,2.7c3,1,5.1,3.8,5.1,7v6.7H42.8"/>
	<polyline class="st0" points="33.4,36.4 33.9,36.2 40.2,34.2 	"/>
	<line class="st0" x1="54.7" y1="43.5" x2="54.7" y2="50.6"/>
	<path class="st0" d="M54.7,36.1l-0.1-15.6c-0.3-2.4-1.4-4.6-3-6.2c-1.9-1.9-4.5-3-7.4-3c-5.5,0-9.9,4.2-10.4,9.6l0,15.4"/>
	<path class="st0" d="M37.4,20.8v4.9c0,3.9,3.2,7.2,7.2,7.2c4,0,7.2-3.2,7.2-7.2v-4.9h-6.1c-0.8,0-1.5-0.3-2.1-0.9l-1.3-1.4
		l-1.3,1.4c-0.5,0.6-1.3,0.9-2.1,0.9H37.4z"/>
	<path class="st0" d="M32.2,54.8l6.6-5.9c1.6-1.4,2-3.8,0.9-5.7l0,0c-1.4-2.4-4.5-3.1-6.7-1.4l-0.8,0.6l-0.8-0.6
		c-2.2-1.6-5.3-0.9-6.7,1.4l0,0c-1.1,1.9-0.7,4.3,0.9,5.7L32.2,54.8z"/>
</g>
</svg>
